<?xml version="1.0" standalone="no"?>
<!DOCTYPE svg PUBLIC "-//W3C//DTD SVG 20010904//EN"
 "http://www.w3.org/TR/2001/REC-SVG-20010904/DTD/svg10.dtd">
<svg version="1.0" xmlns="http://www.w3.org/2000/svg"
 width="1280.000000pt" height="877.000000pt" viewBox="0 0 1280.000000 877.000000"
 preserveAspectRatio="xMidYMid meet">

<g transform="translate(0.000000,877.000000) scale(0.100000,-0.100000)"
fill="#000000" stroke="none">
<path d="M2 8418 c3 -376 8 -405 48 -316 13 29 20 36 20 22 0 -12 -7 -35 -15
-50 -8 -16 -15 -25 -15 -20 0 5 -6 3 -13 -3 -8 -6 -17 -7 -21 -3 -4 4 -6 -6
-4 -22 1 -16 9 -31 16 -32 7 -1 8 0 2 3 -28 14 -3 40 33 34 4 -1 10 12 13 29
4 16 11 30 16 30 6 0 8 9 5 20 -3 11 -1 23 4 26 5 3 6 11 3 17 -4 7 -3 8 2 4
5 -5 9 -14 9 -20 0 -15 45 -18 46 -3 1 6 2 25 2 41 1 30 17 55 35 55 5 0 17
-10 26 -22 15 -22 16 -22 14 -3 -3 33 23 64 51 61 15 -2 20 -1 13 1 -7 3 -10
9 -7 14 3 5 0 7 -7 6 -7 -2 -10 -2 -5 0 4 3 4 9 1 15 -4 5 4 5 16 -2 20 -10
22 -10 17 3 -3 8 0 23 7 33 7 11 12 27 11 36 -2 10 2 15 10 12 7 -3 15 4 18
15 3 12 0 21 -6 21 -7 0 -5 5 3 10 11 7 17 5 22 -8 4 -12 7 -7 7 14 1 37 21
57 47 48 18 -5 18 -5 0 10 -15 12 -16 16 -5 16 12 0 12 2 -1 10 -12 8 -11 10
6 10 13 0 24 -10 31 -27 l10 -28 0 25 c1 39 7 79 12 75 2 -3 10 0 18 6 10 9
13 8 13 -5 0 -9 5 -16 10 -16 7 0 7 7 0 20 -6 11 -16 18 -21 14 -6 -3 -9 2 -7
12 2 11 -4 20 -14 22 -10 2 -18 -2 -18 -8 0 -6 4 -9 8 -6 5 3 9 -1 9 -9 0 -8
-4 -12 -9 -9 -4 3 -8 -9 -8 -26 0 -27 -3 -31 -22 -28 -20 3 -23 9 -22 43 1 22
2 70 3 108 l1 67 53 0 c40 0 58 -5 70 -18 22 -24 22 -71 0 -87 -14 -11 -15
-14 -1 -33 8 -12 18 -19 23 -14 5 4 5 2 2 -5 -8 -13 1 -43 14 -43 5 0 7 34 6
75 -2 41 0 75 4 75 4 0 9 9 12 20 3 11 16 24 29 29 15 7 -90 10 -305 10 l-327
1 2 -352z m68 295 l1 -48 40 48 c23 26 50 47 61 47 16 0 12 -9 -26 -53 l-45
-53 48 -54 48 -54 28 74 c50 133 53 140 72 140 15 0 27 -23 56 -102 20 -57 37
-106 37 -110 0 -5 -9 -8 -20 -8 -13 0 -20 7 -20 19 0 29 -27 51 -64 51 -29 0
-34 -4 -42 -32 -9 -29 -14 -33 -49 -36 -37 -2 -43 1 -75 42 -19 25 -38 45 -42
46 -5 0 -8 -20 -8 -45 0 -33 -4 -45 -15 -45 -12 0 -15 19 -15 110 0 91 3 110
15 110 11 0 15 -12 15 -47z m496 -81 c-18 -16 -18 -16 -6 6 6 13 14 21 18 18
3 -4 -2 -14 -12 -24z m-166 -126 c0 -3 -4 -8 -10 -11 -5 -3 -10 -1 -10 4 0 6
5 11 10 11 6 0 10 -2 10 -4z m-161 -222 c-12 -12 -18 -27 -14 -33 6 -10 -5
-14 -22 -8 -10 3 -11 34 -1 49 6 10 8 10 8 1 0 -7 5 -13 10 -13 6 0 10 6 10
13 0 8 7 14 15 14 12 0 11 -5 -6 -23z m-64 -24 c-3 -5 -12 -10 -18 -10 -7 0
-6 4 3 10 19 12 23 12 15 0z m-38 -112 c-3 -8 -6 -5 -6 6 -1 11 2 17 5 13 3
-3 4 -12 1 -19z m-106 -45 c-12 -20 -14 -14 -5 12 4 9 9 14 11 11 3 -2 0 -13
-6 -23z"/>
<path d="M278 8672 l-16 -42 29 0 c32 0 35 10 16 54 l-13 29 -16 -41z"/>
<path d="M745 8750 c3 -5 10 -10 16 -10 5 0 9 5 9 10 0 6 -7 10 -16 10 -8 0
-12 -4 -9 -10z"/>
<path d="M460 8700 c0 -37 2 -41 21 -38 12 2 27 11 33 21 14 22 -3 51 -33 55
-19 3 -21 -1 -21 -38z"/>
<path d="M660 8723 c0 -15 -2 -16 -10 -3 -5 8 -10 11 -11 5 0 -5 -2 -21 -5
-34 l-4 -25 20 24 c18 21 27 50 15 50 -3 0 -5 -8 -5 -17z"/>
<path d="M684 8689 c-3 -6 -1 -16 5 -22 8 -8 11 -5 11 11 0 24 -5 28 -16 11z"/>
<path d="M648 8533 c7 -3 16 -2 19 1 4 3 -2 6 -13 5 -11 0 -14 -3 -6 -6z"/>
<path d="M12620 8399 c0 -5 5 -7 10 -4 6 3 10 8 10 11 0 2 -4 4 -10 4 -5 0
-10 -5 -10 -11z"/>
<path d="M12165 8390 c3 -5 8 -10 11 -10 2 0 4 5 4 10 0 6 -5 10 -11 10 -5 0
-7 -4 -4 -10z"/>
<path d="M353 8244 l-28 -25 33 22 c17 13 32 24 32 26 0 8 -11 1 -37 -23z"/>
<path d="M258 8236 c-24 -18 -23 -25 2 -19 11 3 20 12 20 19 0 17 0 17 -22 0z"/>
<path d="M167 8204 c-8 -8 1 -24 14 -24 5 0 9 7 9 15 0 15 -12 20 -23 9z"/>
<path d="M6420 8133 c-30 -25 -84 -74 -120 -109 -36 -34 -155 -131 -265 -216
-110 -85 -247 -191 -303 -235 -137 -107 -497 -364 -697 -497 -149 -100 -227
-142 -725 -391 -360 -181 -608 -296 -820 -380 -129 -51 -313 -128 -409 -169
-237 -104 -739 -301 -946 -371 -309 -105 -339 -114 -459 -146 -69 -19 -129
-41 -143 -53 l-25 -22 32 -132 c18 -73 34 -131 36 -129 3 2 -3 36 -13 76 -13
54 -14 74 -5 83 6 6 13 10 16 7 2 -2 25 -89 51 -193 40 -164 44 -191 31 -198
-13 -7 -13 -15 4 -62 10 -30 23 -63 29 -75 12 -21 12 -21 39 -2 15 11 95 36
177 55 311 75 518 131 875 236 389 114 866 287 1108 401 57 27 106 49 108 49
6 0 308 152 480 242 77 40 183 95 235 122 120 62 203 107 309 168 47 27 92 53
100 58 352 202 749 495 1166 860 35 30 109 95 166 145 109 95 143 126 331 303
66 62 127 112 136 112 21 0 100 -55 107 -75 3 -7 13 -16 22 -20 9 -3 1 11 -19
32 -20 21 -44 52 -52 69 -9 17 -24 37 -34 44 -15 12 -16 12 -5 0 6 -8 12 -18
12 -23 0 -6 -16 11 -36 37 -19 25 -32 51 -28 58 4 6 3 8 -3 5 -6 -4 -17 1 -24
10 -10 12 -10 14 -1 9 20 -12 14 5 -13 33 -14 14 -58 60 -97 101 -73 78 -74
71 -2 -12 23 -26 52 -66 63 -89 21 -39 21 -42 5 -60 -9 -11 -20 -19 -23 -19
-4 0 -19 30 -35 68 -16 37 -44 96 -64 132 -40 76 -166 210 -197 210 -11 0 -45
-21 -75 -47z m142 -80 c25 -22 23 -30 -17 -66 l-34 -32 70 -75 c39 -41 89 -94
111 -117 l40 -41 -19 -21 c-11 -12 -26 -19 -34 -16 -8 4 -54 51 -104 105 -49
54 -98 101 -109 105 -13 5 -28 -2 -52 -26 l-34 -33 -21 23 -22 23 99 94 c54
51 101 93 103 94 3 0 13 -7 23 -17z m-473 -236 c-14 -12 -89 -76 -165 -143
-182 -158 -338 -283 -482 -385 -64 -45 -157 -113 -207 -149 -94 -70 -359 -261
-410 -297 -16 -11 -120 -67 -230 -124 -110 -56 -258 -134 -330 -172 -106 -56
-138 -69 -171 -68 -45 2 -79 -21 -70 -45 11 -29 -316 -176 -699 -314 -93 -34
-260 -97 -370 -140 -254 -100 -469 -167 -749 -235 -191 -46 -244 -56 -225 -42
2 2 81 27 174 56 94 30 231 78 305 108 74 30 176 69 225 88 97 35 188 73 470
195 99 43 266 112 371 154 106 42 268 114 360 160 93 46 187 89 209 96 22 7
51 21 64 31 13 11 30 19 38 19 8 0 27 8 41 19 15 10 74 42 132 70 58 27 137
67 175 88 39 21 104 54 145 73 238 108 661 399 1265 870 77 60 145 109 150
109 6 0 -2 -10 -16 -22z m283 -24 c10 -9 18 -21 18 -27 -1 -17 -48 -48 -55
-36 -9 14 -47 12 -68 -4 -10 -8 -19 -27 -20 -42 -2 -24 2 -29 24 -32 15 -2 55
8 90 22 73 30 100 32 136 9 30 -20 55 -74 47 -100 -20 -62 -44 -90 -104 -122
-42 -22 -91 -18 -116 10 -17 19 -17 21 3 40 18 18 24 19 44 9 43 -23 112 33
101 83 -2 9 -10 18 -18 18 -8 1 -20 2 -26 3 -7 1 -40 -9 -73 -23 -92 -37 -136
-27 -171 40 -23 46 4 110 66 152 31 22 98 22 122 0z m-569 -599 c53 -60 101
-110 105 -112 5 -1 19 7 33 18 13 12 33 29 44 38 53 44 50 43 74 18 l22 -23
-73 -59 c-40 -32 -79 -65 -86 -71 -21 -20 -28 -16 -79 44 -26 31 -81 94 -120
139 -40 45 -73 86 -73 90 0 11 34 34 45 30 6 -1 54 -52 108 -112z m-228 -54
c4 0 19 -8 33 -19 24 -16 46 -30 127 -75 11 -7 47 -27 79 -46 l59 -34 -28 -23
-27 -24 -42 25 -42 24 -53 -40 c-39 -29 -51 -44 -45 -56 30 -74 30 -72 4 -92
-31 -24 -40 -25 -40 -4 0 18 -91 279 -116 332 -15 31 -14 34 8 51 22 19 23 19
49 0 15 -10 30 -19 34 -19z m-167 -143 c23 -34 71 -104 107 -155 36 -51 65
-97 65 -102 0 -5 -11 -17 -24 -25 -22 -14 -27 -14 -62 2 -22 10 -41 20 -44 23
-11 11 -170 87 -170 81 0 -4 18 -31 40 -61 22 -30 53 -74 70 -97 l30 -42 -31
-22 c-16 -11 -31 -20 -33 -18 -1 2 -18 29 -37 59 -18 30 -67 102 -107 160
l-73 105 25 22 26 22 126 -65 c70 -35 129 -63 131 -60 4 4 -53 89 -110 163
-26 34 -26 37 -11 55 10 10 22 18 28 18 6 -1 30 -29 54 -63z m-232 -232 c38
-55 85 -125 105 -155 l36 -55 -23 -18 c-12 -9 -25 -17 -28 -17 -7 0 -216 309
-216 319 0 12 44 40 51 33 4 -4 37 -52 75 -107z m-140 -29 c18 -14 18 -16 2
-32 -12 -12 -34 -18 -69 -18 -44 -1 -54 -5 -75 -31 -31 -39 -30 -76 3 -128 37
-58 62 -77 105 -77 60 0 115 69 89 110 -9 12 -15 11 -41 -9 -30 -22 -32 -22
-45 -4 -23 30 -18 41 40 78 31 19 57 35 59 35 2 0 20 -25 40 -56 49 -73 45
-106 -20 -163 -70 -61 -177 -77 -225 -32 -32 29 -99 155 -99 185 0 40 45 113
83 137 39 23 124 26 153 5z m-253 -239 c42 -72 86 -146 98 -164 l20 -32 -32
-17 c-19 -9 -35 -12 -36 -7 -2 5 -44 79 -94 163 l-90 154 23 18 c13 10 25 18
28 18 3 0 40 -60 83 -133z m-194 32 c36 -13 81 -75 81 -112 0 -14 -9 -36 -21
-51 -13 -16 -16 -26 -8 -26 13 0 148 -66 163 -81 5 -4 -6 -15 -26 -24 -34 -17
-35 -17 -116 24 -91 46 -91 46 -116 28 -17 -12 -16 -16 9 -63 15 -27 31 -53
36 -58 15 -16 10 -25 -20 -40 l-29 -15 -92 162 c-50 89 -92 166 -93 171 -2 11
160 95 184 95 9 1 30 -4 48 -10z m-515 -84 c-23 -17 -34 -19 -34 -5 0 11 42
31 49 24 3 -2 -4 -11 -15 -19z m254 -99 c47 -30 108 -139 111 -196 3 -85 -80
-160 -176 -160 -71 0 -100 22 -155 118 -43 76 -45 145 -3 194 28 34 76 62 120
71 29 6 66 -4 103 -27z m-439 -173 c12 -25 3 -42 -20 -43 -4 0 -32 -12 -63
-26 l-56 -25 20 -40 c11 -21 22 -39 24 -39 2 0 29 12 60 26 58 26 69 26 86 -6
9 -17 3 -23 -55 -49 l-65 -30 35 -76 c19 -42 35 -78 35 -80 0 -3 -14 -12 -30
-20 -31 -16 -31 -16 -42 17 -6 18 -45 99 -85 181 l-73 147 38 15 c21 9 64 28
97 44 75 37 79 37 94 4z m-260 -109 c11 -25 8 -44 -8 -44 -5 0 -34 -11 -64
-25 l-56 -24 15 -38 c9 -21 17 -39 19 -41 1 -2 30 8 64 22 l61 25 15 -30 c15
-28 15 -30 -10 -39 -15 -6 -28 -10 -31 -10 -3 0 -20 -6 -39 -14 l-34 -15 25
-58 c47 -105 47 -101 14 -118 l-29 -15 -20 44 c-10 24 -22 55 -26 68 -4 12
-27 68 -50 123 -65 151 -67 136 23 168 42 15 84 32 92 37 22 14 26 13 39 -16z
m-322 -176 c32 -34 69 -73 83 -88 14 -14 50 -55 80 -91 30 -35 59 -67 65 -71
10 -7 -35 -28 -61 -28 -7 0 -28 16 -47 36 l-32 36 -55 -22 c-64 -25 -70 -32
-70 -87 0 -37 -3 -42 -31 -52 -18 -6 -33 -11 -34 -11 -1 0 -2 46 -2 103 0 56
-3 150 -7 208 -6 103 -6 106 16 117 34 16 32 17 95 -50z m-203 -14 c14 -36 6
-52 -29 -58 -19 -4 -37 -10 -39 -15 -3 -4 8 -44 25 -87 44 -113 81 -225 77
-230 -3 -2 -18 -6 -34 -10 -29 -6 -30 -5 -53 73 -12 43 -33 105 -46 138 -12
33 -25 68 -29 78 -5 16 -8 16 -42 2 -48 -20 -49 -19 -62 11 -13 28 -16 26 133
85 84 33 91 33 99 13z m-284 -127 c23 -12 57 -63 48 -73 -3 -2 -19 -7 -36 -10
-25 -5 -32 -3 -32 10 0 41 -102 22 -108 -20 -4 -27 31 -41 116 -48 79 -6 108
-24 122 -77 22 -81 -43 -149 -143 -149 -58 0 -99 19 -115 55 -11 23 -10 26 14
35 34 13 37 13 52 -10 21 -35 105 -20 121 22 15 36 -15 54 -105 61 -50 5 -84
13 -95 23 -24 22 -42 78 -34 106 9 29 44 68 70 78 30 13 97 11 125 -3z m-746
-330 c21 -83 40 -155 42 -158 2 -4 36 2 75 13 40 10 78 17 84 14 21 -8 25 -45
7 -55 -27 -14 -190 -53 -203 -49 -9 3 -109 340 -109 369 0 8 22 16 50 18 11 1
25 -38 54 -152z m-233 30 c25 -34 72 -100 104 -147 32 -47 67 -95 77 -106 21
-23 18 -28 -24 -38 -22 -5 -32 0 -61 36 l-35 41 -48 -12 c-27 -7 -57 -15 -66
-18 -14 -3 -18 -15 -18 -46 0 -23 -4 -47 -8 -53 -8 -13 -77 -30 -69 -18 2 5 8
56 11 114 4 58 9 123 11 145 18 175 15 165 53 165 22 0 36 -13 73 -63z"/>
<path d="M5570 7056 c0 -2 9 -24 21 -50 17 -39 23 -45 38 -37 45 24 44 38 -2
65 -42 25 -57 31 -57 22z"/>
<path d="M4486 6447 c-42 -23 -42 -24 -18 -75 18 -37 35 -38 97 -1 38 22 45
50 21 82 -18 23 -53 21 -100 -6z"/>
<path d="M4177 6277 c-20 -19 -37 -43 -37 -53 0 -60 93 -183 127 -170 8 4 23
6 34 6 11 0 31 11 45 25 20 20 24 33 21 63 -7 76 -62 146 -125 158 -23 5 -36
-1 -65 -29z"/>
<path d="M3264 5803 c2 -15 4 -43 5 -62 1 -32 2 -33 33 -27 52 10 52 21 4 70
-43 45 -45 46 -42 19z"/>
<path d="M1786 5349 c-9 -44 -8 -79 3 -79 14 0 71 22 71 27 0 8 -55 83 -61 83
-4 0 -9 -14 -13 -31z"/>
<path d="M12775 8170 c-3 -6 1 -7 9 -4 18 7 21 14 7 14 -6 0 -13 -4 -16 -10z"/>
<path d="M166 8163 c5 -5 12 -12 16 -18 4 -6 8 -2 8 8 0 9 -7 17 -17 17 -9 0
-12 -3 -7 -7z"/>
<path d="M250 8125 c-8 -9 -8 -15 -2 -15 12 0 26 19 19 26 -2 2 -10 -2 -17
-11z"/>
<path d="M110 8080 c0 -5 5 -10 11 -10 5 0 7 5 4 10 -3 6 -8 10 -11 10 -2 0
-4 -4 -4 -10z"/>
<path d="M11555 8010 c3 -5 10 -10 16 -10 5 0 9 5 9 10 0 6 -7 10 -16 10 -8 0
-12 -4 -9 -10z"/>
<path d="M7700 7853 c-39 -31 -125 -96 -414 -310 -42 -31 -64 -42 -79 -37 -15
5 -19 3 -14 -9 4 -11 0 -13 -14 -10 -10 3 -16 10 -12 16 4 6 1 7 -6 3 -9 -6
-8 -13 5 -27 16 -17 15 -20 -16 -46 -19 -15 -43 -35 -54 -43 -12 -8 -104 -84
-206 -169 -101 -85 -241 -195 -310 -244 -69 -50 -190 -140 -270 -202 -203
-157 -401 -302 -517 -379 -54 -36 -138 -94 -188 -127 -49 -34 -133 -88 -185
-121 -52 -32 -124 -79 -160 -105 -260 -184 -691 -459 -945 -603 -197 -112
-364 -210 -615 -360 -140 -84 -338 -200 -440 -258 -215 -122 -240 -138 -240
-158 0 -9 10 -38 21 -65 15 -34 27 -49 40 -49 11 0 19 -5 19 -11 0 -5 63 -74
140 -153 77 -79 140 -145 140 -149 0 -3 -16 -11 -36 -17 -34 -11 -37 -10 -70
24 -37 39 -42 40 -63 27 -11 -7 -4 -27 35 -101 27 -51 57 -98 66 -104 18 -11
118 17 200 56 44 21 52 22 42 6 -4 -7 3 -3 15 10 12 12 27 22 34 22 7 0 26 7
42 16 17 9 45 22 64 30 30 13 33 12 27 -4 -4 -12 -1 -11 13 5 10 12 67 43 127
68 60 26 125 55 145 66 20 10 46 19 57 19 11 0 22 3 24 8 2 4 31 22 66 40 l62
33 1 -28 c1 -27 1 -27 13 7 7 19 19 35 27 35 8 0 16 3 19 6 11 14 131 69 140
64 5 -3 12 0 17 7 4 7 22 21 40 31 24 13 32 14 35 5 3 -8 9 -4 17 10 6 12 16
22 22 22 5 0 26 10 47 23 20 13 57 32 82 42 25 11 51 25 58 32 17 17 36 17 25
1 -4 -7 11 2 34 20 22 17 50 32 62 32 12 0 20 5 18 11 -1 6 19 23 44 38 121
69 153 86 161 83 5 -1 11 5 14 13 4 8 13 15 21 15 7 0 26 11 41 25 15 14 33
25 40 25 7 0 20 7 29 16 9 8 22 13 29 10 8 -3 14 1 14 10 0 8 8 17 18 21 9 3
25 13 35 21 9 8 20 12 24 9 3 -4 12 2 20 13 8 11 21 20 29 20 8 0 14 4 14 9 0
5 8 12 18 15 10 3 42 22 71 41 30 19 58 32 63 29 4 -3 8 -1 8 4 0 11 70 55 77
49 2 -3 18 9 35 24 16 16 41 32 54 35 13 3 24 10 24 15 0 5 7 9 15 9 7 0 18 8
24 17 8 14 12 15 25 4 14 -12 16 -11 16 7 0 25 43 54 66 45 11 -4 15 -2 11 4
-4 6 0 16 8 23 8 7 15 9 15 4 0 -5 6 -2 13 7 19 25 65 51 77 44 5 -3 10 1 10
9 0 8 13 24 28 35 26 18 29 18 39 3 11 -15 12 -15 12 5 1 20 47 63 69 63 5 0
15 7 22 15 7 9 19 14 27 11 7 -3 13 1 13 8 0 17 49 50 73 49 9 -1 17 4 17 11
0 11 51 56 64 56 3 0 19 13 36 29 22 19 39 27 52 23 13 -3 19 -1 15 5 -8 13
59 66 73 58 6 -3 10 1 10 9 0 19 16 21 23 4 3 -7 6 -3 6 9 1 12 11 29 24 38
21 15 23 14 40 -7 l18 -22 -7 28 c-5 23 0 32 37 66 24 22 50 40 57 40 6 0 12
4 12 8 0 4 24 26 53 47 28 22 66 52 82 67 17 16 36 26 43 23 6 -2 12 1 12 9 0
11 33 40 127 113 15 12 42 34 59 50 18 15 62 55 98 88 108 97 313 303 504 508
41 44 77 75 84 71 6 -4 9 -1 6 7 -2 7 43 62 101 123 126 130 155 162 201 220
19 25 41 45 48 45 7 1 31 -18 53 -41 37 -40 39 -41 22 -11 -10 18 -22 33 -26
33 -5 0 -5 5 -1 12 4 6 3 8 -3 5 -13 -8 -36 17 -25 28 4 4 0 6 -8 3 -18 -6
-54 37 -44 53 4 7 3 9 -3 6 -13 -8 -36 17 -25 28 4 5 2 5 -4 2 -12 -7 -41 19
-32 29 7 7 -56 74 -70 74 -6 0 -1 -11 11 -24 44 -47 51 -70 32 -100 -22 -34
-30 -33 -46 7 -31 79 -64 144 -85 173 -34 44 -30 55 5 14 16 -19 31 -33 34
-30 3 3 -8 20 -25 38 -16 19 -32 31 -35 28 -3 -3 -50 35 -104 84 -54 50 -100
90 -101 90 -2 0 -23 -17 -48 -37z m-70 -105 c-40 -46 -127 -139 -194 -208 -67
-69 -170 -177 -231 -240 -84 -88 -120 -118 -152 -129 -57 -19 -111 -74 -126
-128 -6 -24 -23 -55 -38 -69 l-27 -26 -17 26 -17 25 -73 -55 c-91 -68 -109
-94 -101 -143 4 -29 2 -39 -14 -48 -16 -11 -22 -8 -44 18 -21 24 -29 28 -44
20 -41 -22 -45 -38 -20 -71 l23 -31 -25 -19 c-16 -12 -30 -15 -40 -10 -8 4
-39 4 -68 -1 -93 -14 -154 -80 -156 -166 -1 -29 -7 -45 -19 -53 -11 -6 -20
-10 -21 -8 -1 2 -13 18 -25 36 -12 17 -25 32 -29 32 -4 0 -20 -10 -35 -23
l-28 -22 26 -38 c25 -36 26 -57 2 -57 -7 0 -22 16 -35 35 l-23 36 -29 -18
c-36 -21 -44 -42 -36 -97 6 -39 4 -43 -25 -60 l-32 -19 -27 33 c-26 32 -27 32
-58 16 -38 -19 -38 -20 -12 -53 11 -14 20 -31 20 -37 0 -6 -26 -27 -57 -46
-73 -45 -77 -47 -70 -22 4 19 2 20 -14 11 -24 -12 -25 -1 -1 17 30 23 -3 15
-39 -9 -19 -13 -43 -27 -54 -31 -18 -7 -17 -9 13 -24 17 -9 32 -19 32 -24 0
-11 -11 -9 -40 7 -34 20 -40 19 -37 -7 2 -21 -2 -23 -38 -20 -22 1 -56 5 -76
8 -50 8 -81 -10 -77 -44 3 -27 4 -27 72 -25 85 3 88 6 -98 -112 -109 -70 -140
-86 -146 -74 -31 53 -27 54 -142 -23 l-107 -72 17 -28 c15 -25 15 -30 2 -38
-15 -9 -34 6 -43 33 -3 11 -25 -1 -150 -81 -66 -42 -68 -45 -54 -66 15 -21 12
-23 -77 -73 -57 -31 -109 -53 -139 -56 -78 -11 -126 -43 -162 -109 -8 -14 -29
-34 -47 -43 -31 -15 -33 -15 -48 4 -15 19 -17 18 -100 -30 -47 -26 -96 -61
-110 -76 -28 -30 -71 -54 -108 -59 -13 -1 -40 -14 -60 -28 -20 -14 -80 -43
-132 -65 -52 -21 -150 -64 -217 -95 -106 -49 -488 -206 -500 -206 -15 0 16 23
70 53 34 19 82 45 107 59 25 14 70 39 102 56 31 17 98 57 150 88 51 32 152 92
223 134 72 43 171 102 220 132 50 30 151 88 225 128 74 40 198 111 275 158 77
47 174 106 215 131 97 59 388 252 606 402 175 121 220 146 226 128 5 -15 38 0
38 17 0 13 11 18 26 12 3 -2 12 11 20 27 8 18 42 49 82 74 130 86 188 124 247
167 84 61 388 288 411 307 95 77 149 117 274 205 80 56 177 130 215 164 39 35
93 81 120 103 58 47 118 98 125 105 31 31 331 258 425 322 55 37 209 161 214
171 1 5 5 6 8 3 3 -3 -27 -42 -67 -88z m214 -17 c16 -17 15 -21 -20 -62 l-36
-43 39 -30 c43 -33 193 -185 193 -196 0 -4 -8 -18 -18 -30 l-18 -22 -113 111
c-62 61 -116 111 -122 111 -5 0 -23 -16 -41 -36 l-33 -35 -23 19 c-12 11 -22
22 -22 25 0 3 16 23 35 44 20 21 59 66 88 100 29 35 57 63 63 63 6 0 18 -8 28
-19z m-173 -280 l23 -18 -22 -23 c-18 -19 -24 -21 -37 -10 -36 30 -107 -31
-84 -73 14 -24 41 -21 107 9 76 35 117 34 153 -2 41 -42 48 -99 17 -144 -32
-47 -84 -80 -125 -80 -39 0 -73 15 -73 33 1 29 20 41 66 42 39 0 50 5 67 27
14 18 18 34 13 52 -9 36 -46 34 -128 -4 -73 -34 -95 -32 -138 14 -66 72 -5
196 96 196 26 0 51 -7 65 -19z m-483 -723 c24 -27 48 -48 52 -48 4 0 32 25 64
55 31 30 60 55 65 55 4 0 16 -9 27 -21 18 -20 18 -21 -70 -105 -48 -47 -91
-84 -94 -82 -4 2 -68 65 -141 141 l-134 137 23 25 24 26 69 -68 c38 -38 90
-89 115 -115z m-413 132 c-16 -16 -36 -30 -44 -30 -9 0 -2 12 19 30 46 38 62
38 25 0z m157 -174 c51 -24 135 -64 185 -88 l93 -45 -29 -27 -28 -27 -47 21
-47 20 -50 -43 c-30 -25 -48 -48 -45 -57 2 -8 10 -29 17 -47 12 -29 11 -33
-12 -52 -13 -11 -27 -20 -30 -21 -4 0 -19 35 -34 78 -15 42 -33 91 -41 107 -7
17 -29 67 -47 112 -31 74 -33 83 -19 97 23 23 29 21 134 -28z m-497 -94 c-34
-29 -85 -62 -85 -55 1 16 27 43 51 52 31 12 46 14 34 3z m360 -146 l119 -148
-29 -23 c-28 -23 -30 -23 -69 -7 -23 8 -50 21 -61 28 -18 11 -151 64 -161 64
-3 0 30 -43 73 -97 l76 -96 -28 -23 -29 -23 -30 41 c-17 23 -72 92 -123 154
l-92 113 30 25 c30 25 31 25 67 9 54 -23 225 -93 229 -93 2 0 -32 45 -77 99
l-80 100 22 15 c13 9 27 15 33 13 5 -2 64 -70 130 -151z m-329 -128 c33 -40
87 -108 119 -152 l59 -78 -23 -19 c-13 -11 -26 -19 -30 -19 -4 0 -21 19 -38
43 -17 23 -70 89 -117 147 -47 58 -86 108 -86 112 0 7 40 38 50 38 3 0 33 -33
66 -72z m-116 -68 c19 -10 19 -11 -2 -36 -17 -19 -29 -23 -48 -19 -57 13 -120
-38 -120 -96 0 -30 71 -127 102 -140 55 -23 138 27 138 82 0 39 -15 44 -51 18
l-32 -22 -18 24 c-10 13 -18 26 -18 29 0 3 27 24 59 47 l59 42 45 -56 c38 -48
44 -62 39 -87 -14 -74 -112 -149 -194 -149 -65 0 -82 11 -142 90 -57 75 -59
80 -55 129 5 58 34 106 82 135 34 21 124 26 156 9z m-625 -136 c17 -13 18 -16
5 -24 -22 -14 -33 -12 -26 6 5 12 1 14 -16 8 -20 -6 -21 -5 -9 10 16 19 20 20
46 0z m362 -115 c99 -131 143 -195 143 -207 0 -8 -42 -32 -56 -32 -2 0 -19 22
-37 49 -17 27 -67 97 -110 157 l-79 108 24 18 c12 9 26 17 29 15 4 -1 42 -50
86 -108z m-432 60 c11 -17 -1 -21 -15 -4 -8 9 -8 15 -2 15 6 0 14 -5 17 -11z
m-20 -18 c3 -5 1 -12 -5 -16 -5 -3 -10 1 -10 9 0 18 6 21 15 7z m-55 -11 c3 0
-4 -7 -14 -15 -20 -15 -117 -21 -129 -8 -4 3 -2 12 4 19 8 10 30 13 73 10 33
-3 63 -5 66 -6z m25 -20 c-3 -5 -11 -10 -16 -10 -6 0 -7 5 -4 10 3 6 11 10 16
10 6 0 7 -4 4 -10z m312 -23 c33 -18 73 -77 73 -107 0 -14 -7 -35 -15 -46 -19
-25 -19 -29 5 -31 11 -1 49 -13 84 -27 36 -14 70 -26 78 -26 7 -1 -2 -14 -21
-30 l-33 -28 -87 30 c-87 31 -141 33 -141 5 0 -6 18 -38 41 -71 42 -61 42 -60
-3 -87 -15 -8 -26 3 -73 75 -30 46 -79 120 -110 163 -64 89 -70 73 50 149 72
46 111 54 152 31z m-264 -217 c97 -61 152 -197 108 -267 -26 -41 -83 -78 -145
-95 -45 -12 -51 -11 -94 13 -60 33 -120 126 -129 198 -5 45 -2 56 22 92 61 87
157 111 238 59z m-483 -40 c-24 -15 -36 -11 -14 4 10 8 21 12 24 10 2 -3 -2
-9 -10 -14z m40 -191 c0 -5 -21 -22 -46 -37 -26 -15 -58 -36 -72 -48 l-25 -21
22 -36 22 -36 66 40 c61 38 66 39 79 22 22 -30 17 -38 -46 -77 -33 -21 -60
-40 -60 -43 0 -4 6 -14 14 -22 7 -9 26 -40 41 -68 l28 -52 -24 -20 c-13 -11
-26 -20 -30 -21 -3 0 -24 33 -47 73 -22 39 -68 115 -101 166 -33 52 -58 98
-55 102 2 4 39 28 82 52 42 25 86 52 97 61 18 14 21 14 38 -5 9 -12 17 -25 17
-30z m-268 -137 l16 -27 -73 -43 -74 -43 21 -35 c11 -19 23 -36 27 -38 3 -2
32 11 65 30 55 33 59 34 72 17 22 -30 16 -42 -35 -68 -27 -13 -52 -29 -56 -35
-4 -6 12 -44 34 -85 l41 -74 -30 -16 -29 -15 -23 41 c-13 23 -58 100 -100 172
l-77 132 52 28 c29 16 72 42 97 57 25 16 47 29 50 29 3 1 13 -11 22 -27z
m-347 -209 c18 -16 92 -75 164 -132 l132 -105 -23 -18 c-32 -24 -54 -22 -86 7
-32 30 -49 31 -82 5 -14 -11 -30 -20 -37 -20 -28 0 -42 -30 -36 -79 5 -46 4
-48 -26 -61 -17 -7 -34 -11 -36 -8 -3 3 -10 54 -15 114 -6 60 -13 126 -16 146
-2 21 -6 50 -8 65 -2 15 -7 40 -11 54 -5 21 -2 30 16 43 29 20 26 21 64 -11z
m-165 -88 c15 -29 17 -26 -37 -54 l-42 -21 70 -136 c38 -75 69 -142 69 -149 0
-10 -40 -35 -55 -35 -2 0 -35 66 -74 146 -65 135 -72 145 -93 138 -13 -3 -32
-13 -43 -20 -11 -8 -24 -14 -31 -14 -13 0 -39 53 -27 58 4 1 58 27 118 57 61
29 115 54 121 54 6 1 17 -10 24 -24z m-300 -160 c31 -16 55 -49 46 -64 -13
-21 -56 -21 -76 -1 -26 26 -34 25 -72 -9 l-33 -29 20 -22 c18 -21 26 -22 98
-16 96 7 130 -7 152 -62 35 -83 -41 -169 -153 -174 -42 -2 -56 2 -77 22 -32
30 -32 47 1 62 20 9 27 9 33 0 4 -7 23 -15 42 -18 67 -11 120 66 66 95 -14 7
-53 11 -104 9 -91 -3 -112 7 -130 65 -31 101 89 193 187 142z m-741 -455 c35
-83 65 -150 67 -150 2 0 37 14 79 30 42 17 79 30 84 30 9 0 34 -50 28 -57 -2
-2 -53 -23 -113 -48 -83 -33 -112 -41 -120 -32 -14 15 -120 254 -129 290 -4
15 -11 30 -16 33 -23 14 5 43 51 53 3 0 34 -67 69 -149z"/>
<path d="M6890 6615 c0 -8 4 -16 9 -20 5 -3 12 -19 16 -35 4 -16 10 -32 14
-35 9 -5 61 36 61 47 0 4 -22 18 -50 32 -38 19 -50 22 -50 11z"/>
<path d="M5807 5906 c-20 -12 -40 -26 -44 -29 -7 -8 46 -87 59 -87 5 0 30 14
54 32 48 34 56 64 26 91 -25 23 -50 21 -95 -7z"/>
<path d="M5496 5696 c-34 -32 -38 -40 -33 -71 7 -41 56 -115 92 -139 50 -33
127 -1 143 59 12 43 -2 84 -46 133 -31 34 -49 45 -79 49 -35 5 -44 1 -77 -31z"/>
<path d="M4606 5042 c7 -31 13 -58 13 -60 2 -7 61 33 61 41 0 8 -50 54 -75 69
-8 5 -8 -8 1 -50z"/>
<path d="M8470 7690 c0 -5 5 -10 10 -10 6 0 10 5 10 10 0 6 -4 10 -10 10 -5 0
-10 -4 -10 -10z"/>
<path d="M10500 7680 c0 -5 5 -10 11 -10 5 0 7 5 4 10 -3 6 -8 10 -11 10 -2 0
-4 -4 -4 -10z"/>
<path d="M9730 7620 c0 -5 5 -10 10 -10 6 0 10 5 10 10 0 6 -4 10 -10 10 -5 0
-10 -4 -10 -10z"/>
<path d="M7070 7551 c0 -6 4 -13 10 -16 6 -3 7 1 4 9 -7 18 -14 21 -14 7z"/>
<path d="M7105 7520 c3 -5 8 -10 11 -10 2 0 4 5 4 10 0 6 -5 10 -11 10 -5 0
-7 -4 -4 -10z"/>
<path d="M8970 7363 c-26 -17 -45 -32 -425 -334 -225 -179 -288 -229 -480
-375 -299 -229 -632 -486 -759 -585 -39 -30 -156 -119 -261 -197 -104 -79
-216 -163 -247 -187 -32 -25 -61 -45 -66 -45 -4 0 -21 -13 -38 -28 -25 -24
-182 -146 -248 -192 -12 -8 -64 -46 -116 -85 -52 -39 -165 -123 -250 -187 -85
-63 -213 -156 -285 -205 -71 -49 -193 -134 -269 -187 -107 -75 -141 -94 -148
-84 -7 10 -9 9 -4 -4 4 -13 -16 -31 -77 -71 -107 -72 -470 -318 -573 -389 -44
-31 -112 -73 -150 -94 -38 -20 -72 -42 -76 -47 -9 -14 44 -118 95 -187 40 -55
116 -134 123 -127 2 2 -21 52 -50 113 l-54 109 22 17 c11 10 26 18 32 18 9 0
174 -344 174 -363 0 -4 -13 -13 -29 -21 -28 -15 -29 -15 -90 49 -63 65 -76 72
-40 20 11 -16 32 -52 46 -80 14 -27 42 -75 61 -105 20 -30 50 -95 68 -145 117
-335 156 -429 258 -620 32 -60 72 -136 89 -168 24 -45 28 -60 18 -66 -8 -6 -9
-11 -3 -15 6 -3 12 -1 14 5 6 18 169 -242 189 -301 21 -65 58 -143 105 -224
19 -32 34 -60 34 -61 0 -2 -21 -8 -47 -14 -66 -14 -616 -200 -645 -217 -6 -4
-14 0 -19 7 -12 19 -29 -6 -29 -44 0 -22 -9 -33 -46 -55 -93 -55 -244 -165
-244 -178 0 -8 -6 -14 -12 -14 -7 0 -2 -7 10 -16 12 -8 27 -12 32 -9 6 3 10 2
10 -4 0 -5 -14 -15 -30 -23 -16 -7 -30 -16 -30 -19 0 -8 47 -29 64 -29 7 0 21
-9 31 -20 13 -15 21 -17 31 -9 10 8 24 5 54 -12 33 -19 42 -21 53 -9 10 10 9
12 -5 7 -10 -3 -25 2 -35 11 -10 9 -14 14 -9 10 5 -4 19 0 32 8 21 14 23 14
34 -6 l11 -21 19 21 c10 11 17 28 15 38 -1 9 0 12 2 6 5 -16 53 -25 50 -10 -1
6 5 10 13 8 11 -2 11 1 -3 12 -14 10 -15 16 -5 24 20 16 73 27 64 13 -4 -6
-14 -11 -22 -11 -8 0 -14 -4 -14 -8 0 -4 9 -8 19 -8 11 0 19 5 18 11 -1 5 12
9 28 8 17 -1 23 1 13 3 -9 3 -19 11 -22 19 -3 9 0 12 10 8 7 -3 14 0 14 6 0
12 26 15 33 4 2 -5 2 -2 0 6 -2 9 3 12 16 8 11 -3 21 -1 23 4 2 5 31 11 64 13
33 1 66 6 73 10 6 4 26 9 44 11 18 2 43 6 57 10 30 8 75 15 112 18 16 1 28 5
28 8 0 3 15 5 33 4 17 -2 37 2 43 7 12 9 59 19 104 22 14 1 30 4 35 8 6 4 17
3 24 -1 8 -6 21 -1 33 11 13 13 29 18 44 15 14 -2 21 0 17 6 -3 5 0 8 7 5 23
-7 188 -346 216 -442 33 -115 78 -213 141 -307 28 -41 58 -89 67 -107 15 -29
21 -33 44 -28 15 3 21 3 15 0 -19 -8 -15 -24 4 -17 10 4 14 2 10 -4 -4 -7 5
-9 26 -7 45 6 68 14 62 23 -2 5 7 6 20 3 16 -3 25 0 25 9 0 7 3 10 6 7 3 -3
33 2 66 13 33 10 84 21 112 24 28 4 54 9 57 10 6 4 96 18 121 19 9 0 14 4 12
8 -3 4 5 8 18 9 13 0 30 2 38 4 8 2 44 10 80 18 36 9 117 27 180 41 63 15 149
33 190 41 41 8 91 19 110 25 19 6 62 17 95 24 33 8 120 28 193 45 73 17 145
33 160 36 174 35 313 67 387 89 96 29 186 51 249 60 49 8 84 15 116 26 14 4
50 13 80 20 30 7 107 30 170 51 83 27 117 34 122 26 6 -9 8 -8 8 1 0 7 4 11 9
8 5 -3 14 1 20 8 7 8 34 17 62 21 31 4 47 11 42 18 -4 6 0 8 10 4 9 -3 19 -2
22 3 4 6 17 10 29 10 13 0 50 12 82 26 33 14 60 26 62 25 9 -4 38 37 34 49 -3
8 -1 12 3 8 11 -11 44 46 42 71 -1 12 -7 21 -14 21 -11 0 -11 4 -1 20 10 15
10 25 2 38 -6 9 -10 25 -8 35 1 10 -4 17 -13 17 -13 0 -13 3 -3 15 10 12 9 16
-6 22 -16 6 -16 7 2 15 16 7 15 8 -7 5 -19 -3 -25 1 -27 17 -1 17 1 18 8 6 8
-13 10 -12 10 3 0 9 -5 17 -11 17 -6 0 -8 7 -5 16 6 15 4 15 -11 3 -11 -9 -14
-10 -9 -1 4 7 2 12 -6 12 -9 0 -10 3 -2 8 12 8 4 42 -11 45 -6 1 -10 8 -10 16
0 8 -5 16 -12 18 -7 3 -9 11 -6 19 3 8 -2 23 -12 34 -9 10 -14 24 -10 29 3 6
2 11 -3 11 -5 0 -9 11 -9 25 0 13 3 22 8 19 5 -3 9 -1 9 5 0 5 -4 13 -10 16
-5 3 -10 12 -9 18 0 9 2 8 6 -1 2 -6 9 -10 14 -6 5 3 5 13 -1 25 -8 14 -7 19
1 19 6 0 9 9 6 20 -3 11 -1 20 5 20 5 0 6 5 3 10 -3 6 -1 10 5 10 6 0 8 4 5
10 -3 5 5 30 19 56 13 25 22 52 20 59 -3 7 -1 16 5 20 6 3 11 17 11 31 0 13 5
24 10 24 6 0 10 6 10 13 1 16 41 61 65 71 22 10 72 14 187 18 43 2 78 6 78 9
0 9 34 7 48 -4 8 -7 12 -5 12 6 0 14 28 26 77 32 12 2 38 8 56 15 19 6 58 9
85 7 29 -2 56 1 62 7 8 8 11 7 8 -3 -2 -10 6 -16 24 -17 31 -3 68 -21 68 -33
0 -5 12 -12 28 -16 31 -8 83 -29 127 -53 16 -9 40 -15 53 -14 13 1 31 -5 39
-14 9 -8 24 -13 34 -11 10 3 20 -1 23 -9 3 -7 18 -13 33 -12 15 0 39 -2 52 -6
14 -3 30 -1 38 5 7 7 13 8 13 4 0 -4 10 -1 23 7 12 8 30 18 41 21 14 6 17 4
12 -9 -5 -14 -4 -15 9 -4 12 10 15 10 15 -1 0 -7 14 2 32 21 17 19 35 34 39
33 5 -2 6 4 3 12 -4 8 1 17 10 21 13 5 14 10 4 27 -10 19 -9 20 4 9 13 -10 16
-9 21 9 3 12 1 32 -5 43 -10 18 -9 19 4 8 16 -13 48 -7 48 9 0 4 -9 13 -21 19
-11 7 -18 14 -15 17 3 3 12 0 20 -6 22 -19 28 4 6 24 -11 10 -20 23 -20 29 0
6 5 4 10 -4 8 -13 10 -13 10 2 0 10 -6 23 -14 30 -16 15 -3 63 20 72 7 3 11
12 8 19 -3 8 6 23 20 35 14 11 26 23 26 27 0 5 10 22 23 39 25 35 51 87 49 99
-1 4 3 7 8 7 6 0 10 5 10 12 0 13 40 100 50 108 9 7 70 137 70 149 0 6 5 11
11 11 7 0 9 10 7 25 -3 14 -1 23 6 22 6 -1 12 7 12 18 1 11 2 29 3 40 1 15 3
17 10 7 6 -10 11 -5 20 18 6 18 8 36 5 41 -3 5 0 9 7 9 7 0 10 3 6 6 -3 4 0
13 8 21 8 8 15 20 15 26 0 7 -4 6 -10 -3 -5 -8 -10 -10 -10 -4 0 6 7 17 15 24
8 7 15 22 15 35 0 12 3 25 7 29 4 3 8 16 10 28 2 12 12 36 23 52 36 58 88 164
82 170 -3 3 -1 6 5 6 8 0 34 64 39 95 2 15 13 44 40 99 13 28 24 65 24 84 0
23 4 31 12 26 8 -5 9 -2 5 9 -8 20 2 49 13 42 5 -3 6 5 3 17 -3 13 -2 20 2 16
8 -7 65 59 84 97 22 44 44 100 42 108 -1 5 5 23 12 40 8 18 22 51 32 74 10 23
22 40 28 36 6 -4 7 -1 3 6 -7 11 35 85 56 101 12 9 37 88 30 95 -3 3 1 3 11
-1 10 -3 17 -1 17 5 0 21 65 100 87 107 14 4 20 11 16 18 -4 7 -1 7 8 -1 13
-11 18 -8 30 15 8 15 22 33 32 41 12 9 17 22 14 37 -2 13 0 21 4 18 18 -11 8
9 -13 27 -20 18 -22 18 -41 2 -17 -16 -17 -13 4 31 16 32 20 50 13 53 -6 2
-56 34 -110 71 -55 38 -106 71 -114 75 -8 3 -85 58 -170 121 -85 63 -238 174
-340 247 -102 73 -214 158 -250 189 -36 30 -81 66 -100 80 -18 14 -63 50 -100
80 -36 30 -104 84 -150 120 -46 36 -127 101 -179 145 -129 109 -240 196 -303
240 -55 38 -164 126 -315 257 -49 42 -115 90 -146 107 -82 44 -97 55 -97 67 0
11 -109 119 -258 253 -64 57 -97 80 -104 73 -7 -7 31 -42 121 -113 72 -57 131
-109 131 -116 0 -31 -29 -17 -147 71 -70 53 -130 96 -133 96 -3 0 -18 -18 -33
-40 -25 -36 -30 -38 -52 -28 -14 6 -25 14 -25 17 0 3 21 40 45 81 25 41 45 79
45 85 0 16 -86 85 -107 85 -10 0 -30 -8 -43 -17z m17 -40 c-34 -65 -168 -242
-211 -277 -25 -21 -43 -43 -40 -48 3 -5 3 -16 0 -25 -5 -12 -9 -13 -21 -3 -16
14 -15 15 -123 -74 -40 -32 -72 -61 -72 -65 0 -4 7 -17 16 -29 l16 -23 44 36
c24 20 44 34 44 31 0 -7 -160 -206 -166 -206 -3 0 -18 9 -33 21 -45 33 -126
23 -182 -23 -57 -46 -60 -148 -8 -216 17 -22 16 -52 0 -52 -4 0 -34 34 -67 75
-36 47 -64 73 -72 70 -30 -11 -151 -111 -161 -133 -27 -58 -2 -125 59 -157 27
-14 47 -14 84 1 28 11 14 -8 -44 -56 l-49 -41 -28 42 c-15 24 -40 56 -55 73
-14 17 -35 42 -45 55 l-19 23 -29 -25 -29 -24 41 -49 c95 -114 115 -145 102
-160 -9 -11 -18 -5 -50 34 -21 27 -58 59 -82 72 -41 22 -48 23 -99 12 -55 -13
-107 -49 -122 -87 -14 -33 -19 -102 -8 -109 20 -12 62 13 62 36 0 41 36 86 74
93 44 9 54 2 107 -64 l42 -55 -57 -53 c-31 -29 -61 -53 -66 -53 -18 0 -10 18
15 38 30 24 31 33 6 56 -19 17 -22 16 -75 -24 -31 -23 -56 -44 -56 -47 0 -2
12 -20 26 -38 14 -19 23 -39 19 -45 -11 -18 -34 -11 -49 18 -8 15 -28 41 -43
57 -16 17 -43 49 -61 73 -37 46 -60 52 -86 23 -17 -19 -16 -22 22 -73 21 -29
60 -78 85 -108 44 -53 50 -70 23 -70 -12 0 -130 134 -166 189 l-16 23 -32 -27
c-23 -19 -31 -33 -27 -46 4 -10 8 -29 11 -41 2 -13 12 -60 23 -105 10 -46 15
-83 12 -83 -3 0 -33 36 -66 81 -33 44 -64 84 -70 89 -6 5 -23 -2 -40 -16 -18
-15 -26 -27 -20 -32 6 -4 28 -32 50 -62 21 -30 56 -76 77 -101 36 -44 37 -47
20 -63 -28 -24 -47 -20 -112 24 -32 22 -61 40 -65 40 -3 0 -28 16 -55 35 -27
19 -54 35 -59 35 -24 0 -20 -24 11 -63 52 -67 66 -80 77 -72 6 3 11 2 11 -3 0
-5 14 -16 31 -25 31 -15 32 -15 10 -27 -21 -11 -22 -13 -6 -30 15 -17 14 -19
-13 -39 -17 -12 -34 -21 -40 -21 -5 0 -20 -10 -33 -21 -13 -12 -35 -29 -49
-38 -28 -18 -33 -22 -75 -54 -103 -80 -310 -207 -337 -207 -10 0 -46 18 -79
40 -33 22 -65 40 -70 40 -5 0 -9 3 -9 8 0 8 -48 32 -64 32 -6 0 -22 -9 -36
-19 -18 -14 -21 -22 -13 -33 5 -7 18 -44 28 -81 10 -37 22 -70 26 -72 4 -3 5
-13 2 -24 -5 -20 -72 -56 -83 -44 -17 21 -105 128 -107 132 -2 4 -114 -71
-162 -107 -23 -18 -23 -20 -6 -45 9 -15 19 -27 22 -27 2 0 31 20 63 45 l58 45
27 -36 c15 -20 23 -39 19 -43 -46 -38 -103 -80 -120 -89 -20 -11 -26 -6 -65
48 -24 33 -47 60 -50 60 -3 0 -43 -27 -88 -59 -45 -33 -87 -61 -93 -63 -12 -4
18 -58 32 -58 4 0 35 20 69 45 34 25 62 45 64 45 2 0 13 -13 25 -30 l22 -30
-157 -78 c-148 -73 -160 -78 -185 -65 -61 31 -176 -26 -218 -107 -20 -40 -80
-75 -88 -52 -6 19 -16 15 -100 -41 -43 -30 -112 -68 -153 -85 -41 -17 -110
-47 -154 -67 -103 -48 -277 -116 -282 -111 -5 4 -2 6 367 254 151 102 352 239
445 305 183 129 243 171 375 262 67 46 333 242 385 282 6 5 48 37 95 71 47 34
112 84 145 111 33 26 96 72 140 101 44 30 107 77 140 106 33 28 77 62 97 75
40 26 205 151 538 409 118 91 271 208 340 260 69 51 159 121 200 155 41 34
120 94 175 135 55 41 105 79 111 84 7 6 24 20 40 31 15 11 75 58 133 104 58
45 119 93 134 105 16 11 34 26 40 31 7 6 73 58 147 117 74 58 144 115 155 125
28 26 98 73 103 69 2 -2 -3 -17 -11 -33z m96 -277 c21 -16 21 -21 0 -45 -12
-14 -24 -18 -45 -14 -32 6 -55 -9 -69 -45 -11 -29 4 -52 33 -52 11 0 50 18 88
40 82 48 114 50 160 11 31 -26 35 -34 35 -79 0 -57 -21 -93 -75 -129 -38 -26
-95 -30 -124 -8 -19 14 -19 15 0 37 10 13 19 24 20 26 1 1 13 -2 28 -8 24 -9
31 -6 57 19 16 16 29 36 29 44 0 58 -49 62 -133 12 -74 -45 -105 -45 -153 0
-35 33 -36 37 -30 82 3 28 15 57 29 71 42 47 114 65 150 38z m-669 -448 c18
-16 17 -19 -34 -77 -29 -34 -55 -61 -58 -61 -15 0 -31 40 -32 76 0 43 18 68
55 77 31 7 48 3 69 -15z m235 -256 c52 -48 99 -88 105 -90 6 -1 19 10 28 25
10 15 30 43 46 61 l28 33 27 -21 27 -22 -37 -46 c-21 -26 -44 -53 -51 -61 -7
-8 -20 -24 -29 -37 -8 -13 -20 -24 -26 -24 -6 0 -47 35 -91 78 -45 42 -107
101 -139 131 -55 50 -58 56 -46 77 l12 23 26 -20 c14 -11 68 -60 120 -107z
m-518 46 c16 -18 29 -36 29 -40 0 -11 -77 -68 -92 -68 -24 0 -59 45 -52 66 7
20 63 73 78 74 4 0 21 -15 37 -32z m384 -136 c55 -27 130 -65 166 -84 65 -34
66 -35 48 -56 -21 -27 -36 -27 -74 -2 l-30 20 -41 -46 -42 -47 21 -49 20 -49
-23 -24 c-22 -24 -24 -24 -36 -7 -7 10 -16 32 -20 48 -9 39 -49 131 -101 232
-24 46 -43 89 -43 96 0 21 21 35 39 26 9 -5 61 -31 116 -58z m-136 -238 l133
-145 -24 -24 c-27 -27 -53 -26 -117 2 -20 9 -38 17 -41 18 -3 1 -12 4 -20 7
-44 17 -56 21 -66 23 -6 2 -22 6 -35 10 -16 6 3 -21 64 -87 l87 -95 -26 -24
-26 -24 -57 61 c-31 34 -92 101 -135 148 l-79 87 24 25 25 24 79 -26 c97 -31
103 -33 113 -35 4 0 16 -6 27 -12 11 -6 28 -12 39 -14 21 -4 -30 60 -108 136
l-46 45 22 23 c12 13 25 23 28 23 4 0 67 -65 139 -146z m-201 -274 c26 -30 57
-65 69 -76 l22 -22 -24 -22 c-27 -25 -39 -21 -80 30 -11 14 -64 74 -119 133
l-98 108 23 25 24 26 68 -74 c38 -40 90 -98 115 -128z m-220 47 l23 -13 -21
-26 c-17 -22 -26 -26 -54 -21 -44 7 -74 -11 -92 -52 -18 -45 -8 -71 55 -136
48 -50 52 -52 92 -46 49 6 88 46 89 89 0 38 -17 44 -52 18 -28 -21 -30 -21
-49 -4 -10 9 -19 22 -18 28 0 6 23 30 52 53 l52 42 50 -56 c40 -45 49 -62 46
-86 -9 -86 -102 -157 -206 -157 -32 0 -44 8 -95 61 -68 71 -90 112 -90 167 0
47 42 111 88 133 40 19 101 22 130 6z m-490 -54 l33 -42 -23 -15 c-32 -22 -35
-21 -41 22 -4 20 -10 51 -13 67 -7 34 -4 31 44 -32z m198 -140 c16 -21 58 -71
94 -113 36 -41 79 -94 97 -116 30 -39 31 -43 15 -56 -34 -29 -40 -28 -79 25
-22 28 -79 97 -126 152 l-86 100 21 22 c12 13 24 23 28 23 3 0 20 -17 36 -37z
m-104 -94 c31 -14 78 -77 78 -103 0 -12 -7 -33 -14 -48 -14 -26 -14 -28 7 -28
30 0 177 -50 177 -60 0 -4 -15 -17 -33 -28 -30 -17 -37 -18 -65 -6 -18 7 -32
11 -32 9 0 -2 -21 5 -46 15 -55 24 -77 25 -94 5 -10 -12 -4 -26 34 -79 l46
-64 -25 -16 c-13 -9 -26 -16 -28 -16 -3 0 -29 33 -60 73 -30 39 -85 109 -121
155 l-66 82 81 60 c83 62 114 71 161 49z m-240 -211 c85 -48 163 -196 139
-262 -18 -45 -77 -92 -136 -106 -54 -13 -56 -13 -102 16 -68 42 -122 124 -130
196 -5 48 -2 60 19 92 56 82 134 106 210 64z m-862 -188 c0 -5 7 -10 15 -10 8
0 15 -4 15 -10 0 -5 6 -10 13 -10 6 0 20 -7 30 -15 18 -13 17 -14 -12 -30 -38
-19 -47 -15 -56 25 -4 16 -11 32 -16 35 -12 8 -12 25 1 25 6 0 10 -4 10 -10z
m460 -60 c0 -3 -25 -20 -55 -39 -75 -46 -79 -52 -58 -90 10 -17 23 -31 28 -31
6 0 33 14 60 30 28 16 53 30 56 30 4 0 14 -11 22 -24 16 -23 15 -24 -43 -60
l-60 -37 19 -27 c10 -15 33 -48 50 -74 l31 -47 -31 -16 c-17 -9 -32 -15 -34
-13 -1 2 -18 28 -36 58 -18 30 -66 103 -106 162 l-73 106 98 60 97 61 17 -22
c10 -12 18 -24 18 -27z m-240 -142 c0 -4 -24 -21 -52 -37 -29 -17 -60 -34 -68
-39 -12 -8 -10 -15 14 -46 l28 -37 56 32 55 31 18 -23 c17 -23 11 -49 -12 -49
-13 0 -78 -44 -79 -53 0 -5 18 -40 41 -79 22 -38 39 -71 37 -72 -14 -13 -50
-26 -57 -22 -5 3 -21 32 -37 63 -15 32 -57 104 -91 160 -35 55 -63 106 -63
112 0 6 26 24 58 40 31 17 71 39 87 49 30 20 30 20 47 -2 10 -11 18 -24 18
-28z m5000 -121 c0 -2 -10 -12 -22 -23 l-23 -19 19 23 c18 21 26 27 26 19z
m-5314 -52 c6 -5 35 -30 65 -55 29 -25 87 -77 128 -117 74 -69 75 -72 56 -87
-29 -22 -43 -20 -82 14 -39 35 -52 37 -84 11 -13 -10 -34 -21 -45 -25 -26 -8
-35 -37 -24 -76 10 -35 -4 -56 -42 -66 -26 -6 -28 -4 -29 22 -1 43 -25 233
-44 354 -5 31 -2 37 22 52 30 18 25 20 79 -27z m5284 -30 c0 -5 -5 -3 -10 5
-5 8 -10 20 -10 25 0 6 5 3 10 -5 5 -8 10 -19 10 -25z m-5476 -32 c3 -10 8
-23 11 -29 3 -7 -4 -14 -17 -18 -13 -3 -34 -14 -47 -25 l-24 -18 20 -34 c34
-56 133 -248 133 -257 0 -8 -42 -32 -55 -32 -3 0 -19 28 -36 63 -18 34 -54
101 -80 148 l-49 86 -47 -24 -47 -23 -14 26 c-7 14 -11 29 -7 32 10 11 229
120 241 121 7 1 14 -7 18 -16z m-275 -192 c39 -36 39 -44 1 -58 -25 -9 -31 -9
-39 5 -12 22 -68 20 -86 -4 -39 -51 -5 -74 93 -65 88 9 122 -4 149 -57 34 -68
9 -126 -72 -163 -50 -23 -103 -24 -135 -2 -48 32 -52 54 -14 71 21 10 28 9 41
-4 21 -21 89 -13 108 13 21 27 18 61 -5 68 -12 4 -56 5 -98 4 -100 -3 -120 4
-142 53 -38 84 27 166 131 168 27 0 45 -8 68 -29z m5642 -48 c-12 -20 -14 -14
-5 12 4 9 9 14 11 11 3 -2 0 -13 -6 -23z m-6366 -380 c43 -82 78 -149 80 -151
1 -1 35 11 75 28 40 16 76 30 80 30 7 0 33 -51 28 -55 -21 -14 -194 -85 -208
-85 -4 0 -39 57 -76 128 -37 70 -78 147 -91 171 -13 24 -23 45 -23 47 0 3 49
32 57 34 1 0 36 -66 78 -147z m-137 -102 c83 -79 149 -147 147 -151 -3 -4 -17
-11 -31 -14 -22 -6 -34 -1 -64 29 l-36 36 -58 -26 -59 -26 5 -43 c3 -24 3 -48
-1 -53 -5 -7 -56 -33 -65 -33 -1 0 -3 19 -4 43 -4 66 -11 133 -28 251 -15 105
-15 111 2 123 10 8 24 12 30 11 6 -2 79 -68 162 -147z m6339 97 c-3 -8 -6 -5
-6 6 -1 11 2 17 5 13 3 -3 4 -12 1 -19z m-633 -1383 c-4 -8 0 -23 7 -32 10
-12 10 -15 2 -9 -8 4 -13 2 -14 -6 0 -7 -5 -3 -11 9 -8 17 -8 26 2 38 16 19
21 19 14 0z m-24 -100 c0 -8 -4 -15 -10 -15 -5 0 -7 7 -4 15 4 8 8 15 10 15 2
0 4 -7 4 -15z m-1525 -575 c3 -5 1 -10 -4 -10 -6 0 -11 5 -11 10 0 6 2 10 4
10 3 0 8 -4 11 -10z m21 -47 c-7 -7 -26 7 -26 19 0 6 6 6 15 -2 9 -7 13 -15
11 -17z m-3606 -110 c32 -59 38 -78 28 -85 -10 -7 -9 -8 4 -6 11 2 32 -19 62
-61 26 -36 46 -68 46 -72 0 -4 -19 -10 -42 -14 -39 -6 -94 -18 -213 -45 -22
-5 -89 -19 -150 -30 -60 -11 -137 -27 -170 -35 -33 -8 -94 -17 -135 -20 -41
-4 -124 -17 -185 -30 -191 -41 -232 -43 -202 -10 9 9 16 10 25 2 10 -8 15 -8
21 1 3 6 15 9 26 8 31 -5 43 7 15 16 -17 5 -6 6 33 5 55 -2 73 5 42 17 -9 3
-12 12 -8 21 5 13 7 14 14 3 5 -8 9 -9 9 -2 0 7 11 15 25 18 31 8 32 22 3 30
-18 4 -20 8 -10 15 8 4 13 12 13 17 -1 5 3 9 8 9 5 0 12 3 16 7 4 4 13 4 21 1
9 -3 14 2 15 13 0 11 3 14 6 7 6 -16 39 -17 48 -3 4 6 1 18 -7 27 -11 14 -11
16 3 11 10 -4 19 3 28 23 7 16 19 29 27 29 8 0 14 5 14 10 0 6 11 15 24 20 14
5 54 23 89 39 36 17 136 53 223 81 88 28 164 53 169 55 6 2 13 4 17 4 3 1 25
-33 48 -76z m-920 -383 c0 -4 -20 -6 -46 -5 -51 3 -73 14 -25 13 17 -1 34 2
37 5 7 7 34 -3 34 -13z"/>
<path d="M6873 5581 c-18 -9 -33 -22 -33 -28 0 -7 -11 -15 -25 -19 -14 -3 -25
-10 -25 -14 0 -9 96 -50 118 -50 12 0 12 -3 2 -15 -7 -8 -18 -15 -24 -14 -6 0
-5 3 3 6 8 3 -6 13 -35 24 -89 34 -87 34 -81 7 8 -32 1 -39 -29 -28 -14 6 -24
6 -24 1 0 -5 6 -11 13 -14 26 -10 -19 -36 -75 -42 -50 -6 -58 -5 -58 9 0 23
42 37 80 26 23 -7 30 -6 27 3 -7 22 -52 31 -82 16 -42 -21 -54 -45 -33 -66 15
-15 25 -15 77 -6 55 11 112 6 140 -12 9 -5 8 -12 -4 -25 -25 -28 -71 -35 -100
-16 -21 14 -24 14 -19 1 8 -19 46 -29 84 -21 20 3 30 1 30 -6 0 -7 14 10 31
36 39 63 117 138 168 163 22 11 38 23 35 26 -9 9 -56 -12 -80 -34 -19 -18 -23
-18 -58 -4 -26 11 -36 21 -32 31 4 12 2 12 -14 4 -14 -8 -20 -8 -20 0 0 20 31
22 73 6 53 -20 71 -20 35 0 -16 8 -28 22 -28 31 0 13 -3 14 -12 5 -24 -24 -31
-12 -8 13 13 14 22 24 19 24 -2 -1 -19 -9 -36 -18z m-8 -141 c3 -5 3 -10 0
-10 -13 0 -65 34 -65 42 0 10 56 -18 65 -32z m-30 -11 c20 -12 34 -23 32 -25
-6 -6 -87 30 -87 39 0 12 17 8 55 -14z m-24 -21 c22 -6 39 -15 39 -19 0 -17
-21 -19 -42 -5 -12 9 -30 16 -40 16 -10 0 -18 5 -18 10 0 13 14 13 61 -2z"/>
<path d="M6987 5403 c-10 -10 -8 -23 4 -23 5 0 8 4 5 9 -4 5 0 12 6 14 7 3 8
6 2 6 -6 1 -14 -2 -17 -6z"/>
<path d="M6955 5370 c3 -5 8 -10 11 -10 2 0 4 5 4 10 0 6 -5 10 -11 10 -5 0
-7 -4 -4 -10z"/>
<path d="M6930 5350 c0 -5 5 -10 10 -10 6 0 10 5 10 10 0 6 -4 10 -10 10 -5 0
-10 -4 -10 -10z"/>
<path d="M6903 5334 c-15 -16 -16 -24 -4 -24 8 0 24 30 19 35 -2 2 -9 -3 -15
-11z"/>
<path d="M6870 5311 c0 -6 4 -13 10 -16 6 -3 7 1 4 9 -7 18 -14 21 -14 7z"/>
<path d="M6492 5287 c-10 -12 -9 -19 6 -37 11 -13 24 -20 30 -16 16 10 15 20
-6 46 -15 19 -19 20 -30 7z"/>
<path d="M6810 5260 c0 -6 7 -10 15 -10 8 0 15 2 15 4 0 2 -7 6 -15 10 -8 3
-15 1 -15 -4z"/>
<path d="M8486 6161 c14 -28 31 -48 37 -45 12 4 41 44 35 48 -61 33 -87 46
-92 46 -3 0 5 -22 20 -49z"/>
<path d="M7457 5413 c-20 -14 -37 -31 -37 -37 0 -7 13 -27 28 -46 l29 -34 46
34 c50 36 56 53 31 88 -20 29 -51 28 -97 -5z"/>
<path d="M7188 5210 c-27 -27 -30 -36 -26 -75 10 -81 94 -161 157 -149 76 15
96 94 43 173 -57 84 -121 103 -174 51z"/>
<path d="M6344 4635 c4 -11 10 -40 13 -65 3 -25 6 -46 8 -48 3 -3 75 38 75 42
0 2 -23 23 -52 47 -35 29 -49 37 -44 24z"/>
<path d="M4916 3913 c3 -27 8 -50 9 -51 2 -2 20 1 40 8 l37 12 -38 39 c-21 21
-42 39 -46 39 -5 0 -6 -21 -2 -47z"/>
<path d="M5580 1806 c0 -2 7 -9 15 -16 13 -11 14 -10 9 4 -5 14 -24 23 -24 12z"/>
<path d="M5566 1735 c-3 -8 -1 -15 4 -15 6 0 10 7 10 15 0 8 -2 15 -4 15 -2 0
-6 -7 -10 -15z"/>
<path d="M5057 1639 c7 -7 15 -10 18 -7 3 3 -2 9 -12 12 -14 6 -15 5 -6 -5z"/>
<path d="M8360 7271 c5 -11 15 -23 21 -27 6 -3 3 5 -6 20 -20 30 -30 35 -15 7z"/>
<path d="M8540 7122 c25 -23 50 -41 55 -41 6 0 -4 13 -22 28 -17 16 -31 31
-30 33 1 1 0 2 -2 1 -2 -1 -13 3 -25 9 -11 6 -1 -8 24 -30z"/>
<path d="M9330 7136 c0 -2 8 -10 18 -17 15 -13 16 -12 3 4 -13 16 -21 21 -21
13z"/>
<path d="M9410 7088 c0 -9 8 -22 18 -29 16 -13 16 -13 2 5 -8 11 -13 21 -12
23 2 3 1 7 -2 11 -3 3 -6 -2 -6 -10z"/>
<path d="M6146 5400 c4 -14 13 -36 21 -50 l14 -25 -7 25 c-4 14 -13 36 -21 50
l-14 25 7 -25z"/>
<path d="M1581 5254 c0 -11 3 -14 6 -6 3 7 2 16 -1 19 -3 4 -6 -2 -5 -13z"/>
<path d="M3140 4373 c11 -24 25 -43 30 -43 17 0 11 13 -21 50 l-30 35 21 -42z"/>
<path d="M3690 4180 c-9 -6 -10 -10 -3 -10 6 0 15 5 18 10 8 12 4 12 -15 0z"/>
<path d="M4396 3948 c-16 -22 -15 -35 2 -24 9 5 24 46 17 46 -2 0 -11 -10 -19
-22z"/>
<path d="M4700 3610 c0 -5 5 -10 11 -10 5 0 7 5 4 10 -3 6 -8 10 -11 10 -2 0
-4 -4 -4 -10z"/>
<path d="M11964 3125 c-10 -8 -14 -15 -8 -15 5 0 19 7 30 15 10 8 14 15 8 15
-5 0 -19 -7 -30 -15z"/>
<path d="M5085 2730 c-3 -5 -1 -10 4 -10 6 0 11 5 11 10 0 6 -2 10 -4 10 -3 0
-8 -4 -11 -10z"/>
<path d="M10790 2670 c0 -5 5 -10 11 -10 5 0 7 5 4 10 -3 6 -8 10 -11 10 -2 0
-4 -4 -4 -10z"/>
<path d="M5120 2640 c0 -5 5 -10 11 -10 5 0 7 5 4 10 -3 6 -8 10 -11 10 -2 0
-4 -4 -4 -10z"/>
<path d="M5166 2363 c-6 -14 -5 -15 5 -6 7 7 10 15 7 18 -3 3 -9 -2 -12 -12z"/>
<path d="M5260 2279 c0 -5 5 -7 10 -4 6 3 10 8 10 11 0 2 -4 4 -10 4 -5 0 -10
-5 -10 -11z"/>
<path d="M3890 2014 c-256 -33 -455 -46 -797 -51 -310 -5 -361 -8 -356 -20 4
-9 15 -13 29 -10 13 2 21 1 19 -3 -2 -4 18 -7 45 -7 28 0 50 3 50 7 0 3 73 7
163 8 230 3 463 11 527 18 103 12 311 31 418 38 68 5 76 4 93 -17 19 -22 19
-22 2 16 -19 43 -20 43 -193 21z"/>
<path d="M260 2010 c0 -5 5 -10 10 -10 6 0 10 5 10 10 0 6 -4 10 -10 10 -5 0
-10 -4 -10 -10z"/>
<path d="M4820 1720 c0 -5 5 -10 10 -10 6 0 10 5 10 10 0 6 -4 10 -10 10 -5 0
-10 -4 -10 -10z"/>
<path d="M4480 1330 c0 -5 5 -10 10 -10 6 0 10 5 10 10 0 6 -4 10 -10 10 -5 0
-10 -4 -10 -10z"/>
<path d="M4958 1305 c2 -19 6 -35 8 -35 2 0 4 16 4 35 0 19 -4 35 -8 35 -4 0
-6 -16 -4 -35z"/>
<path d="M4820 1276 c0 -9 5 -16 10 -16 6 0 10 4 10 9 0 6 -4 13 -10 16 -5 3
-10 -1 -10 -9z"/>
<path d="M4185 1211 c-6 -11 9 -23 19 -14 9 9 7 23 -3 23 -6 0 -12 -4 -16 -9z"/>
<path d="M9736 927 c3 -10 9 -15 12 -12 3 3 0 11 -7 18 -10 9 -11 8 -5 -6z"/>
<path d="M6328 643 c7 -3 16 -2 19 1 4 3 -2 6 -13 5 -11 0 -14 -3 -6 -6z"/>
<path d="M8671 221 c-8 -5 -9 -11 -3 -15 5 -3 12 1 16 9 6 17 6 18 -13 6z"/>
<path d="M8765 150 c-3 -5 -1 -10 4 -10 6 0 11 5 11 10 0 6 -2 10 -4 10 -3 0
-8 -4 -11 -10z"/>
</g>
</svg>
